<svg enable-background="new 0 0 224 50" version="1.1" viewBox="0 0 224 50" xml:space="preserve" xmlns="http://www.w3.org/2000/svg"><path class="st0" d="m199.5 35v2.6c0 0.4-0.4 0.8-0.8 0.8h-15.6c-0.4 0-0.8-0.4-0.8-0.8v-25.2c0-0.4 0.4-0.8 0.8-0.8h15.6c0.4 0 0.8 0.4 0.8 0.8v2.6c0 0.4-0.3 0.8-0.8 0.7-3.2-0.3-8.9-0.5-10.3-0.5h-0.1v8.2c2.6 0 7 0 9.6-0.2 0.4 0 0.8 0.3 0.8 0.7v3.1-0.9c0 0.4-0.4 0.8-0.8 0.7-2.6-0.2-7-0.2-9.6-0.2v8.2h0.1c1.4 0 7.1-0.2 10.3-0.5 0.4 0 0.8 0.3 0.8 0.7z"></path><path class="st0" d="m179.6 15v-2.6c0-0.4-0.4-0.8-0.8-0.8h-19.1c-0.4 0-0.8 0.4-0.8 0.8v2.6c0 0.4 0.3 0.7 0.6 0.7 2.1-0.3 4.3-0.5 6.7-0.5v22.4c0 0.4 0.4 0.8 0.8 0.8h4.4c0.4 0 0.8-0.4 0.8-0.8v-22.4h0.1c1.4 0 3.5 0.2 6.4 0.5 0.5 0 0.9-0.3 0.9-0.7z"></path><path class="st0" d="m153.4 30.8l2.9 6.7 0.1 0.2 0.1 0.1c0.1 0.3 0.4 0.5 0.7 0.5h-0.5 4.8c0.4 0 1.2 0 0.7-1.1l-10.4-24.4-0.1-0.3c-0.2-0.6-0.8-1-1.5-1h-1c-0.3 0-0.6 0.2-0.7 0.5l-10.7 25.2c-0.5 1.1 0.3 1.1 0.8 1.1h1.4c0.3 0 0.6-0.2 0.7-0.5l0.1-0.1 3-7c3.1-0.1 6.3-0.1 9.6 0.1zm-1.8-4.2c-2-0.1-4.1-0.1-6.1 0l3-7.2 3.1 7.2z"></path><path class="st0" d="m111.9 11.6h4.2c0.4 0 0.8 0.4 0.8 0.8v25.2c0 0.4-0.4 0.8-0.8 0.8h-4.2c-0.4 0-0.8-0.4-0.8-0.8v-25.2c0-0.5 0.4-0.8 0.8-0.8z"></path><path class="st0" d="m56.9 27.7v-15.3c0-0.4 0.4-0.8 0.8-0.8h2.3c1.7 0 3 1.4 3 3v11.6c0 9.3 5.8 9.5 7.7 9.5 5.1 0 7.2-3.2 7.2-11.7v-11.6c0-0.4 0.4-0.8 0.8-0.8h1.6c0.4 0 0.8 0.4 0.8 0.8v12.9c0 9.6-3.4 13.1-11.6 13.2-3.2-0.1-12.6-0.3-12.6-10.8z"></path><path class="st0" d="m85.8 11.6c0.8 0 1.5 0.3 2 0.8l0.1 0.1 2.7 2.7 14.6 14.6v-17.4c0-0.4 0.4-0.8 0.8-0.8h1.6c0.4 0 0.8 0.4 0.8 0.8v25.3c0 0.4-0.4 0.8-0.8 0.8h-1.7c-0.5 0-0.9-0.2-1.2-0.5l-17.7-17.7v17.3c0 0.4-0.4 0.8-0.8 0.8h-1.6c-0.4 0-0.8-0.4-0.8-0.8v-25.2c0-0.4 0.4-0.8 0.8-0.8h1.2z"></path><path class="st0" d="m119.5 11.6h4.2c0.7 0 1.2 0.4 1.5 1l0.1 0.3 0.2 0.4 7.4 17.4 7.7-18.2 0.1-0.3v-0.1c0.1-0.3 0.4-0.5 0.7-0.5h1.9c0.4 0 0.6 0.4 0.5 0.8l-10.7 25.2-0.1 0.2-0.1 0.2c-0.1 0.3-0.4 0.5-0.7 0.5h-1.5c-0.3 0-0.6-0.2-0.7-0.5l-0.1-0.1-10.9-25.5c-0.2-0.4 0-0.8 0.5-0.8z"></path><path class="st0" d="m217.4 31.7c0 2.5-2.3 4.6-5.2 4.6s-5.2-2.1-5.2-4.6v-0.6c0-0.5-0.4-0.9-0.9-0.9h-0.5c-1.7 0-4.4 0.4-3.2 3.1 1.5 3.4 5.3 5.8 9.7 5.8 5.7 0 10.4-4 10.4-8.9 0-11-15.1-5.9-15.1-12.8 0-2.2 2.1-3.9 4.8-3.9 2.6 0 4.8 1.7 4.8 3.9v0.5c0 0.5 0.4 0.8 0.8 0.8 1.7 0 4.4-0.4 3.2-3.1-1.4-3-4.8-5.1-8.8-5.1-5.3 0-9.5 3.6-9.5 8.1 0 10 14.7 5.9 14.7 13.1z"></path><path class="st0" d="m14.2 8c-0.5 0-0.9-0.3-0.9-0.8 0-0.3 0.2-0.6 0.5-0.7l13.1-5.2c0.5-0.2 1-0.3 1.6-0.3 0.5 0 1.1 0.1 1.5 0.3l13.1 5.2c0.3 0.1 0.5 0.4 0.5 0.7 0 0.4-0.4 0.8-0.8 0.8h-28.6z"></path><path class="st0" d="m8.4 36.8c0 0.5-0.3 0.9-0.8 0.9-0.3 0-0.6-0.2-0.7-0.5l-5.2-13.1c-0.2-0.5-0.3-1-0.3-1.6 0-0.5 0.1-1.1 0.3-1.5l5.2-13.2c0.1-0.3 0.4-0.6 0.7-0.6 0.4 0 0.8 0.4 0.8 0.8v28.8z"></path><path class="st0" d="m8.3 42c-0.5 0-0.9 0.3-0.9 0.8 0 0.3 0.2 0.6 0.5 0.7l13.1 5.2c0.5 0.2 1 0.3 1.6 0.3 0.5 0 1.1-0.1 1.5-0.3l13.2-5.2c0.3-0.1 0.5-0.4 0.5-0.7 0-0.4-0.4-0.8-0.8-0.8h-28.7z"></path><path class="st0" d="m42.8 41.9c0 0.5 0.3 0.9 0.8 0.9 0.3 0 0.6-0.2 0.7-0.5l5.2-13.1c0.2-0.5 0.3-1.1 0.3-1.6s-0.1-1.1-0.3-1.5l-5.2-13.2c-0.1-0.3-0.4-0.5-0.7-0.5-0.4 0-0.8 0.4-0.8 0.8v28.7z"></path><path class="st0" d="m36.6 37.5c0 0.3 0.2 0.6 0.6 0.6 0.2 0 0.4-0.1 0.5-0.3l3.6-9.1c0.1-0.4 0.2-0.7 0.2-1.1s-0.1-0.7-0.2-1.1l-3.6-9.2c-0.1-0.2-0.3-0.4-0.5-0.4-0.3 0-0.6 0.3-0.6 0.6v20z"></path><path class="st0" d="m14.6 32.5c0 0.3-0.2 0.6-0.5 0.6-0.2 0-0.4-0.1-0.5-0.3l-3.6-9.1c-0.1-0.3-0.2-0.7-0.2-1.1s0.1-0.7 0.2-1.1l3.6-9.2c0.1-0.2 0.3-0.4 0.5-0.4 0.3 0 0.5 0.3 0.5 0.6v20z"></path><path class="st0" d="m18.5 14.2c-0.3 0-0.6-0.2-0.6-0.5 0-0.2 0.1-0.4 0.3-0.5l9.1-3.6c0.3-0.1 0.7-0.2 1.1-0.2s0.7 0.1 1.1 0.2l9.2 3.6c0.2 0.1 0.4 0.3 0.4 0.5 0 0.3-0.3 0.5-0.6 0.5h-20z"></path><path class="st0" d="m12.7 35.8c-0.3 0-0.6 0.2-0.6 0.5 0 0.2 0.1 0.4 0.3 0.5l9.1 3.6c0.3 0.1 0.7 0.2 1.1 0.2s0.7-0.1 1.1-0.2l9.2-3.6c0.2-0.1 0.4-0.3 0.4-0.5 0-0.3-0.3-0.5-0.6-0.5h-20z"></path></svg>